<?xml version="1.0" encoding="UTF-8"?>
<svg width="25px" height="25px" viewBox="0 0 25 25" version="1.1" xmlns="http://www.w3.org/2000/svg" xmlns:xlink="http://www.w3.org/1999/xlink">
    <!-- Generator: Sketch 48.2 (47327) - http://www.bohemiancoding.com/sketch -->
    <title>search-stroke-24</title>
    <desc>Created with Sketch.</desc>
    <defs></defs>
    <g id="Desktop" stroke="none" stroke-width="1" fill="none" fill-rule="evenodd" transform="translate(-201.000000, -1496.000000)">
        <g id="5.-Glyph-Icons" transform="translate(79.000000, 1082.000000)" fill="#005cfb" fill-rule="nonzero">
            <g id="Outline-Icons-24px" transform="translate(0.000000, 364.000000)">
                <g id="search-stroke-24" transform="translate(123.000000, 51.000000)">
                    <polygon id="Shape" points="15.6567864 17.071 22 23.4142136 23.4142136 22 17.071 15.6567864"></polygon>
                    <path d="M10.7948367,8.33659769 L11.5936195,8.93821718 L13.8,10.6 C14.5558058,11.1668544 15,12.0552427 15,13 L15,15 L5,15 L5,13 C5,12.0552427 5.44419416,11.1668544 6.19838051,10.6012172 L9.20516333,8.33659769 L10,9.39191902 L10.7948367,8.33659769 Z M9.60961949,10.5357828 L7.4,12.2 C7.14780584,12.3891456 7,12.6847573 7,13 L13,13 C13,12.6847573 12.8521942,12.3891456 12.5983805,12.1987828 L10,10.2417598 L9.60961949,10.5357828 Z" id="Shape"></path>
                    <path d="M10,9 C10.5527153,9 11,8.55271525 11,8 L11,7 C11,6.44728475 10.5527153,6 10,6 C9.44728475,6 9,6.44728475 9,7 L9,8 C9,8.55271525 9.44728475,9 10,9 Z M10,11 C8.34271525,11 7,9.65728475 7,8 L7,7 C7,5.34271525 8.34271525,4 10,4 C11.6572847,4 13,5.34271525 13,7 L13,8 C13,9.65728475 11.6572847,11 10,11 Z" id="Shape"></path>
                    <path d="M10,21 C3.92486775,21 -1,16.0751322 -1,10 C-1,3.92486775 3.92486775,-1 10,-1 C16.0751322,-1 21,3.92486775 21,10 C21,16.0751322 16.0751322,21 10,21 Z M10,19 C14.9705627,19 19,14.9705627 19,10 C19,5.02943725 14.9705627,1 10,1 C5.02943725,1 1,5.02943725 1,10 C1,14.9705627 5.02943725,19 10,19 Z" id="Oval"></path>
                </g>
            </g>
        </g>
    </g>
</svg>