<?xml version="1.0" encoding="utf-8"?>
<!-- Generator: Adobe Illustrator 22.0.1, SVG Export Plug-In . SVG Version: 6.00 Build 0)  -->
<svg version="1.1" id="圖層_1" xmlns="http://www.w3.org/2000/svg" xmlns:xlink="http://www.w3.org/1999/xlink" x="0px" y="0px"
	 viewBox="0 0 18 18" style="enable-background:new 0 0 18 18;" xml:space="preserve">
<style type="text/css">
	.st0{fill:#596371;}
</style>
<title>smile</title>
<desc>Created with Sketch.</desc>
<g id="Inbound---Query---Active_wechat-profile" transform="translate(-392.000000, -557.000000)">
	<g id="Content" transform="translate(-1.000000, 121.000000)">
		<g id="Inner-Content" transform="translate(299.000000, 0.000000)">
			<g id="Chatbox-Area" transform="translate(2.000000, 0.000000)">
				<g id="Textbox-Area" transform="translate(20.000000, 380.000000)">
					<g id="Group-3" transform="translate(20.000000, 50.000000)">
						<g id="smile" transform="translate(53.000000, 7.000000)">
							<g id="Oval">
								<path class="st0" d="M8,16.5c-4.7,0-8.5-3.8-8.5-8.5c0-4.7,3.8-8.5,8.5-8.5c4.7,0,8.5,3.8,8.5,8.5
									C16.5,12.7,12.7,16.5,8,16.5z M8,1.5C4.4,1.5,1.5,4.4,1.5,8s2.9,6.5,6.5,6.5s6.5-2.9,6.5-6.5S11.6,1.5,8,1.5z"/>
							</g>
							<g id="Oval_1_">
								<circle class="st0" cx="5" cy="6" r="1"/>
							</g>
							<g id="Oval_2_">
								<circle class="st0" cx="11" cy="6" r="1"/>
							</g>
							<g id="Shape">
								<path class="st0" d="M8,12c-1.4,0-2.7-0.7-3.4-1.9C4.4,9.8,4.5,9.5,4.7,9.4C5,9.2,5.3,9.3,5.4,9.5C6,10.4,7,11,8,11
									c1,0,2-0.6,2.6-1.5c0.1-0.2,0.5-0.3,0.7-0.2c0.2,0.1,0.3,0.4,0.2,0.7C10.7,11.3,9.4,12,8,12z"/>
							</g>
						</g>
					</g>
				</g>
			</g>
		</g>
	</g>
</g>
</svg>
